<svg width="132" height="192" viewBox="0 0 132 192" fill="none" xmlns="http://www.w3.org/2000/svg">
<path d="M131.147 159.989V191.288H-0.000217438L67.2546 103.081C76.5668 90.9233 83.0336 81.3524 86.655 74.3682C90.3626 67.3841 92.2164 61.2191 92.2164 55.8732C92.2164 48.4579 89.9746 42.6378 85.491 38.4128C81.0935 34.1878 75.0147 32.0753 67.2546 32.0753C60.0117 32.0753 54.2347 34.7483 49.9235 40.0942C45.6123 45.3538 43.4567 52.4673 43.4567 61.4346V62.34H5.30256V59.1066C5.30256 40.3097 10.6916 25.781 21.4696 15.5203C32.2476 5.17341 47.5093 -3.3617e-05 67.2546 -3.3617e-05C87.431 -3.3617e-05 103.124 4.61295 114.333 13.8389C125.542 23.0649 131.147 35.9554 131.147 52.5104C131.147 71.1348 116.575 98.6403 87.431 135.027L84.7149 138.26L67.2546 159.989H131.147Z" fill="url(#paint0_linear_13_41)"/>
<defs>
<linearGradient id="paint0_linear_13_41" x1="70.876" y1="-63.7119" x2="70.876" y2="254.288" gradientUnits="userSpaceOnUse">
<stop stop-color="#26E4E4" stop-opacity="0.4"/>
<stop offset="1" stop-color="#D9D9D9" stop-opacity="0"/>
</linearGradient>
</defs>
</svg>
